inDegrees=no
nColumns=32
nRows=12
DataType=double
version=3
OpenSimVersion=4.5
endheader
time	pelvis_tilt	pelvis_list	pelvis_rotation	pelvis_tz	pelvis_ty	pelvis_tx	hip_flexion_r	hip_adduction_r	hip_rotation_r	knee_angle_r	ankle_angle_r	subtalar_angle_r	mtp_angle_r	hip_flexion_l	hip_adduction_l	hip_rotation_l	knee_angle_l	ankle_angle_l	subtalar_angle_l	mtp_angle_l	lumbar_extension	lumbar_bending	lumbar_rotation	arm_flex_r	arm_add_r	arm_rot_r	elbow_flex_r	arm_flex_l	arm_add_l	arm_rot_l	elbow_flex_l
0.7899999999999999	-0.08558347088457066	0.1128436432487477	-0.0320984009032332	-0.01213072999999998	0.8339253599999999	1.01892475	0.4659092065220061	-0.1654918315202428	-0.0604984230855702	-1.287966084014101	0.002861421930084151	-0.2596512274800827	0	0.1467398794719304	0.2166419423121003	-0.06027238601774319	-0.09978939109632888	0.1454650585231497	0.006071564135375273	0	0.0433984637460469	-0.08411663356285361	-0.01029918268003078	-0.1104390882500377	-0.09500224477715936	-0.3702506865301704	0.6514954547651617	-0.1406914967996801	-0.07459711389429821	-0.5191305489300231	0.6566572592211508
0.7999999999999999	-0.08764851985426139	0.1035836637380458	-0.02743225922613901	-0.01230776	0.83554876	1.0303059	0.5002749262440044	-0.1529665173330758	-0.06305614306504162	-1.274880714264854	0.01676479241862269	-0.2596588516018542	0	0.1208556703276709	0.2087512492481065	-0.05464361784771834	-0.07800106321931731	0.1474572459228156	0.01061116220368695	0	0.04476315675946766	-0.07446417862289204	-0.01663490553928805	-0.1223151935370708	-0.09678754241809021	-0.3736923541656543	0.6455824016069853	-0.1238035153772603	-0.08073475968581249	-0.5134245070054979	0.6703221018440046
0.8099999999999999	-0.08236289042175091	0.09634025508588573	-0.02212988911036156	-0.01291526999999998	0.83733075	1.04155489	0.5243711193970231	-0.1466765938332531	-0.06917171934269736	-1.254898183444437	0.04940734979185747	-0.2365300317958959	0	0.08895940125635614	0.2035845009724781	-0.04731138598753259	-0.0586154994057315	0.1467456662855983	0.01218470288619768	0	0.03680287759272972	-0.06674816701161695	-0.02527362211154423	-0.1282454025836624	-0.09746126638743051	-0.3893496491291545	0.6350895598111472	-0.1192686968931052	-0.08972703388783046	-0.4806837226764938	0.7102881628603688
0.82	-0.08397825454864759	0.08904686555986616	-0.01672724241209684	-0.01331500999999996	0.83842538	1.05282907	0.5525598888618179	-0.1373841451655736	-0.07387197619038559	-1.224925893432956	0.06228970615863785	-0.2399518651606943	0	0.06560618010514577	0.1977997010654567	-0.04229850593876007	-0.04092974002499685	0.1474022905661251	0.0118527553996353	0	0.03769316027032821	-0.05931917130517383	-0.03015847562743181	-0.1406341482475193	-0.0994967150887327	-0.3931690911868375	0.6273563998163726	-0.1031004543476227	-0.09407196892694897	-0.4755042561866062	0.7252811607268845
0.83	-0.08462484915472035	0.08208314317224376	-0.01210516979577698	-0.01370604999999997	0.83919994	1.06431686	0.5767467324963231	-0.1283662926397689	-0.07820780078534162	-1.188180630729631	0.07358280532752619	-0.2376778177333397	0	0.03988396805873328	0.1919891132206053	-0.03060467097056634	-0.02141502533742196	0.1518654058631535	0.01240159233434914	0	0.03815132124174857	-0.05206791992975382	-0.03478267870576683	-0.1516760420026352	-0.1014476214373317	-0.3975110141367329	0.6185621082597851	-0.08928936814328335	-0.09837057332840868	-0.4691641338759034	0.7456719141109664
0.84	-0.07249904876873364	0.07414922948002083	-0.00409656370478327	-0.01444890999999998	0.84058601	1.07540477	0.5837336048873095	-0.122090460230195	-0.08898358820366321	-1.144944539676286	0.08898916505422211	-0.2288094769180449	0	0.0002611372098809428	0.185160016674137	-0.01571732538858959	-0.000931588337807895	0.1403235580059478	-0.005605447778691408	0	0.02109570338813558	-0.04364348406201615	-0.04821533424410836	-0.1512864014359177	-0.1019231088158354	-0.4136364383451433	0.6031783264613588	-0.08874599461272704	-0.1078570689240554	-0.4416126052394956	0.7944939446998216
0.85	-0.07177611830956541	0.06778966553542037	0.001804667867423369	-0.01475789	0.84098364	1.08695554	0.6000127906829584	-0.1134335583743306	-0.09455542635148188	-1.094163960989235	0.1027498517348175	-0.2205413693187437	0	-0.02739036755127261	0.1789694917696104	-0.01072731264367669	0.02040318780780492	0.1371235257948817	-0.009377688803017648	0	0.02010114950503519	-0.03728025045042432	-0.05532406150921173	-0.1592605812774831	-0.1023747556948885	-0.4210089263990592	0.5935264717401268	-0.07915274647698087	-0.1140834975202235	-0.4312125135562339	0.8166131685025213
0.86	-0.06613064611918985	0.06427646584247013	0.004253898385546797	-0.01502550999999996	0.84117913	1.09865365	0.6090467412531189	-0.1069957840193141	-0.09850145521994988	-1.03838176224508	0.1161264497410459	-0.2214757973072446	0	-0.06189798254145806	0.175822001997544	-0.008448717062824341	0.04438459868443444	0.1341452896760933	-0.007993428205221073	0	0.01307376802210999	-0.03346088396549791	-0.05859199016977298	-0.1671365242149025	-0.1036926031985211	-0.4296691244837489	0.5832178124458566	-0.07211336829890917	-0.1198148552710159	-0.4191246438058649	0.8484595138268461
0.87	-0.06712351533770566	0.06519661266018545	0.004379681025708002	-0.01555544999999997	0.84033699	1.11010634	0.6247308900270231	-0.1040687600495694	-0.09905874146810553	-0.9789289563150692	0.1168200355572739	-0.2234646989500608	0	-0.08879556458147755	0.1782991526918214	-0.007050058371363441	0.06819231666283354	0.1353442882861797	-0.003358135304818879	0	0.01384456266659015	-0.03361811648901988	-0.05535964842359405	-0.1790147607234852	-0.107391716847051	-0.4340337702242419	0.5751185101247487	-0.0581114397656422	-0.1214075169081469	-0.4135110531935483	0.8691078888040967
0.88	-0.06540467295106855	0.06322634754506372	0.004138426250966507	-0.01564835999999997	0.83953477	1.12177113	0.6325571645591224	-0.09570249426047148	-0.09809809741250922	-0.911762644368457	0.1309675728957774	-0.2250634367764496	0	-0.1178085715451134	0.1775492840214739	-0.009912243708462415	0.09000342422817628	0.1308406867610257	-0.004162782355470722	0	0.01160059424356443	-0.03102936787157357	-0.05460953977047437	-0.1883494060419573	-0.1093271567859505	-0.4388412642899629	0.5670897238178102	-0.04912586570808972	-0.1247938986215801	-0.406624697281244	0.8951337315916886
0.89	-0.05392814860381743	0.06125941974144304	0.003304736631063686	-0.01540828999999999	0.83914803	1.133493	0.6262907646069579	-0.08705856543693714	-0.09919179751629596	-0.8383884273540938	0.1252172027498442	-0.2294724637963599	0	-0.1577089989313576	0.1764107183094025	-0.01217034161898057	0.1124441898644379	0.1265699556167862	-0.01285754825679252	0	-0.002882671313727182	-0.02896519541410669	-0.0589837424103525	-0.1904193146985438	-0.1092260282202997	-0.4477279331567987	0.5587930732784548	-0.04894899090009996	-0.1342863105343252	-0.3929385686228328	0.9339423920008255
0.9	-0.05619165512463178	0.06469910912517698	0.003636829863769508	-0.01556254999999995	0.83715309	1.14504207	0.6356611102862135	-0.08440028691634867	-0.097058027262379	-0.7674369439368591	0.1303245447301237	-0.2230134177174859	0	-0.1805838878173835	0.1807656987655638	-0.009853000775931497	0.1304717204919627	0.1317282481212545	-0.006434849706788913	0	-0.001190339682601362	-0.03286261407037983	-0.05545175014635349	-0.2009886455488506	-0.111119025766048	-0.451967216434977	0.5520941070847518	-0.03577291132817221	-0.1364784576883982	-0.3881491662910722	0.9534846443188055
